# xmcd CD database file
#
# Track frame offsets:
#	150
#	11502
#	30080
#	46713
#	64235
#	78749
#	93250
#	114076
#	134232
#	157471
#	180865
#	199019
#
# Disc length: 2777 seconds
#
# Revision: 0
# Processed by: cddbd v1.5.2PL0 Copyright (c) Steve Scherf et al.
# Submitted via: CDex 1.51
#
DISCID=930ad70c
DTITLE=JD Allen - Shine!
DYEAR=2008
DGENRE=Jazz
TTITLE0=Esre!
TTITLE1=Sonhouse
TTITLE2=Conjuration of angles
TTITLE3=Marco Polo
TTITLE4=Shine!
TTITLE5=The laughing bell
TTITLE6=East boogie (Kolby's theme)
TTITLE7=Ephraim
TTITLE8=Angel
TTITLE9=Teo (Ted's theme)
TTITLE10=Se'Lah
TTITLE11=Variation
EXTD=YEAR: 2008
EXTT0=
EXTT1=
EXTT2=
EXTT3=
EXTT4=
EXTT5=
EXTT6=
EXTT7=
EXTT8=
EXTT9=
EXTT10=
EXTT11=
PLAYORDER=
